<svg width="24" height="24" viewBox="0 0 24 24" fill="none" xmlns="http://www.w3.org/2000/svg">
<path d="M21.2061 0.5625H19.3311V7.32656H21.2061V0.5625Z" fill="#00C689"/>
<path d="M23.5827 3.07971H16.9546V4.95471H23.5827V3.07971Z" fill="#00C689"/>
<path d="M15.253 20.2641V20.2547H4.77646C3.3374 20.2547 2.15615 19.0781 2.15615 17.6344V12.4031C2.15615 11.7563 2.39521 11.1375 2.82646 10.6547C3.1499 10.2985 3.1124 9.74533 2.75615 9.42189C2.3999 9.09845 1.84678 9.13595 1.52334 9.4922C0.806152 10.2985 0.407715 11.325 0.407715 12.4078V17.6438C0.407715 20.0531 2.3624 22.0078 4.77178 22.0078H15.2437C15.7218 22.0078 16.1155 21.6141 16.1155 21.136C16.1249 20.6578 15.7312 20.2641 15.253 20.2641Z" fill="#00C689"/>
<path d="M9.57637 10.6547C10.2987 10.6547 10.8842 10.0692 10.8842 9.34687C10.8842 8.62459 10.2987 8.03906 9.57637 8.03906C8.85408 8.03906 8.26855 8.62459 8.26855 9.34687C8.26855 10.0692 8.85408 10.6547 9.57637 10.6547Z" fill="#00C689"/>
<path d="M19.6123 8.90625C19.617 8.98594 19.6123 9.23906 19.6123 9.23906L16.617 12.2344C16.4154 12.4359 16.0779 12.4359 15.8764 12.2344L14.967 11.325C14.1139 10.4719 12.6186 10.4719 11.7654 11.325L7.19512 15.9C6.77793 15.4313 6.5248 14.8172 6.5248 14.1469V8.90625C6.5248 7.46719 7.70137 6.28594 9.14512 6.28594H15.9607V4.54688H9.14043C6.73105 4.54688 4.77637 6.50156 4.77637 8.91094V14.1469C4.77637 16.5562 6.73105 18.5109 9.14043 18.5109H16.9967C19.4061 18.5109 21.3607 16.5562 21.3607 14.1469V8.91094C21.3607 8.67188 21.342 8.4375 21.3045 8.20781H19.5186C19.5186 8.20313 19.6029 8.73281 19.6123 8.90625ZM19.6123 14.1469C19.6123 15.5859 18.4357 16.7672 16.992 16.7672H9.14043C9.02793 16.7672 8.9248 16.7672 8.81699 16.7531L12.9982 12.5719C13.2092 12.3703 13.5373 12.3703 13.7389 12.5719L14.6482 13.4813C15.5014 14.3344 16.9967 14.3344 17.8498 13.4813L19.6123 11.7188V14.1469Z" fill="#00C689"/>
</svg>
